<svg width="175" height="195" fill="none" xmlns="http://www.w3.org/2000/svg"><path d="m175.207 131.424-.177.248.307.034-.13-.282zM36.013 36.698c-.205-.114-.41-.229-.622-.343.191.129.39.258.581.387.28.267.561.533.848.798l.821.819c.22.618.301 1.346.678 1.839 3.235 4.175 6.56 8.272 9.775 12.459 4.111 5.355 8.147 10.764 12.197 16.164 1.512 2.015 2.969 4.07 4.74 6.514-1.197.244-1.935.614-2.578.48-1.17-.245-2.244-.904-3.414-1.186-11.328-2.735-22.438-6.22-33.622-9.456-1.792-.517-3.598-1.363-6.225-1.041 7.381 4.393 14.29 8.318 21.001 12.555 6.793 4.289 13.982 7.98 20.74 13.021-.97.579-1.504 1.123-2.1 1.214-5.704.874-11.396 1.9-17.142 2.415-4.303.384-8.537.995-12.799 1.681-5.171.834-10.398 1.313-16.588 2.065 1.614.614 2.366 1.07 3.16 1.172 2.941.375 5.91.56 8.852.95 5.588.745 11.15 1.629 16.739 2.368 4.802.637 9.632 1.098 14.427 1.764.958.132 1.833.84 2.702 1.261-.185.555-.198.934-.37 1.03a29146.061 29146.061 0 0 1-40.53 22.903c.54.057.957.215 1.306.122 4.399-1.158 8.777-2.412 13.182-3.518 2.73-.683 5.534-1.046 8.25-1.743 7.77-1.992 15.508-4.104 23.279-6.098.677-.173 1.491.172 3.16.405-9.946 13.595-20.105 26.201-29.483 39.412 3.475-2.377 6.656-5.033 9.946-7.554 6.533-5.011 13.127-9.951 19.701-14.913 2.046-1.543 4.125-3.043 6.157-4.601 1.053-.809 1.737-.379 2.346.581-4.241 14.849-8.489 29.717-12.737 44.584 3.263-4.46 5.992-9.18 8.783-13.866a1500.66 1500.66 0 0 1 8.373-13.845c2.86-4.671 5.754-9.318 8.873-14.364.807.995 1.6 1.528 1.703 2.169a327.69 327.69 0 0 1 1.71 12.379c.63 5.219 1.122 10.454 1.772 15.671.43 3.458 1.046 6.893 1.546 10.343.43 2.984.814 5.974 1.218 8.962.91-4.222 1.505-8.47 2.004-12.727.362-3.082.212-6.292 1.046-9.23.575-2.041.363-4.029.739-6.01.561-2.893 1.054-5.8 1.471-8.718.376-2.669.547-5.368.944-8.033.123-.849.698-1.63 1.163-2.666.752.807 1.443 1.323 1.84 2.005 1.368 2.327 2.641 4.712 3.94 7.077 4.289 7.784 8.544 15.585 12.881 23.345 1.492 2.676 3.168 5.25 4.761 7.87.206.132.404.265.609.396-.212-.127-.417-.254-.622-.38-.062-1.224.075-2.498-.219-3.662-1.772-6.996-3.701-13.952-5.466-20.949-1.703-6.74-3.277-13.512-4.911-20.271-.288-1.19-.055-2.128 1.299-2.567 12.772 9.773 25.557 19.558 38.342 29.343-2.414-3.997-5.144-7.637-7.907-11.252-6.314-8.26-12.642-16.51-18.977-24.757-.663-.867-.841-1.681.301-2.775 3.653 1.09 7.498 2.205 11.315 3.378 7.415 2.279 15.043 3.8 22.355 6.492 2.853 1.051 6.02 1.241 9.044 1.821.417.25.827.499 1.238.749.075-.173.143-.346.219-.518l-1.457-.229c-.315-.424-.541-.994-.958-1.251-3.913-2.392-7.853-4.729-11.78-7.083-6.245-3.741-12.491-7.477-18.736-11.224-2.312-1.389-4.57-2.886-6.937-4.166-1.149-.617-1.231-1.26-.609-2.521 4.378-.579 8.907-1.071 13.401-1.795 6.506-1.048 12.97-2.373 19.592-2.425.41-.004.835.037 1.224-.06 3.53-.892 7.101-1.467 10.747-1.59.65-.023.65-.052 1.731-1.299-3.161-.357-6.376-.69-9.584-1.095-2.257-.286-4.508-.684-6.765-1.012-3.318-.484-6.629-1.018-9.96-1.403-3.352-.386-6.725-.58-10.084-.93-1.593-.166-3.16-.551-4.754-.744-1.573-.19-2.996-.664-4.898-1.724 6.752-4.983 14.051-7.903 20.659-11.965 6.697-4.114 13.805-7.558 20.734-11.296-4.439.493-8.715 1.422-12.963 2.453-3.639.882-7.244 1.89-10.87 2.823-7.121 1.835-14.249 3.624-21.356 5.507-1.683.444-2.572-.049-2.976-1.516 9.837-12.821 19.564-25.503 29.292-38.186-4.125 2.389-7.935 5.078-11.623 7.933-7.798 6.038-15.514 12.187-23.319 18.218-.849.657-1.806 1.643-3.305 1.162 0-1.179-.232-2.31.042-3.298 1.655-5.927 3.406-11.825 5.164-17.724 2.285-7.696 4.611-15.38 6.896-23.078.15-.51.082-1.088.109-1.634.24-.407.486-.815.725-1.222-.164-.068-.321-.136-.479-.204-.082.477-.164.954-.239 1.43-3.407 5.464-6.82 10.928-10.227 16.392-1.423 2.289-2.887 4.556-4.261 6.873-3.448 5.795-6.841 11.625-10.323 17.4-.342.565-1.143.849-2.223 1.606-.37-3.494-.452-6.467-1.04-9.338a148.81 148.81 0 0 1-2.367-15.52c-.246-2.548-.274-5.168-.937-7.611-.999-3.69-.582-7.511-1.485-11.19-.465-1.89-.65-3.848-1.094-6.595-1.142 8.607-1.881 16.386-3.277 24.043-1.416 7.748-1.3 15.728-3.687 24.326-3.174-3.313-4.645-6.831-6.416-10.138-1.854-3.452-3.674-6.923-5.59-10.338-1.983-3.532-4.24-6.922-6.06-10.531-1.704-3.365-3.496-6.644-5.993-9.612 3.824 15.547 7.641 31.094 11.452 46.61-1.553 1.267-2.696-.031-3.694-.683-2.148-1.393-4.105-3.082-6.15-4.628-3.667-2.765-7.381-5.465-11.007-8.284-4.385-3.404-8.653-6.945-13.045-10.336-1.696-1.31-3.584-2.37-5.39-3.543-.274-.276-.54-.55-.814-.826l-.8-.85zM60.517 6.51c3.584 2.251 3.913 5.54 5.712 7.811 1.812 2.292 2.893 5.165 4.316 7.77 1.491 2.726 3.01 5.437 4.528 8.152 1.444 2.596 2.922 5.18 4.351 7.783 1.437 2.603 2.812 5.237 4.255 7.833 1.444 2.592 2.942 5.153 4.693 8.225.362-3.251.595-6.094 1.02-8.91.69-4.638 1.49-9.26 2.277-13.882.335-1.988.226-3.979.752-6.014.808-3.1.691-6.43 1.054-9.653.52-4.545 1.074-9.087 1.751-13.61.09-.58 1.02-1.035 2.052-2.016 3.414 18.97 4.44 37.638 8.079 56.239 4.864-8.12 9.618-16.12 14.434-24.09 4.761-7.888 9.44-15.831 14.612-23.973 1.409 1.835 1.081 3.15.718 4.408-1.142 3.99-2.387 7.948-3.509 11.944-2.347 8.384-4.597 16.796-6.964 25.173-.978 3.467-2.169 6.875-3.455 10.928 1.033-.397 1.635-.488 2.059-.814 4.296-3.294 8.558-6.625 12.827-9.948 4.473-3.486 8.927-7.005 13.435-10.453 3.755-2.873 7.579-5.659 11.362-8.492 1.067-.8 2.107-1.633 3.188-2.473 1.204.75 1.115 1.607.493 2.467a749.008 749.008 0 0 1-6.697 9.16c-3.222 4.335-6.431 8.683-9.728 12.96-3.222 4.18-6.567 8.262-9.83 12.415-2.251 2.873-4.446 5.792-6.978 9.101 6.39-1.262 12.3-3.21 18.402-4.311 6.033-1.09 11.923-3.025 17.895-4.495 6.061-1.492 12.012-3.514 18.121-4.464.766 1.255.828 1.976-.363 2.594-3.112 1.62-6.183 3.328-9.269 5.007-6.649 3.619-13.325 7.18-19.927 10.885-5.267 2.957-10.438 6.091-15.89 9.282 5.67 1.957 11.547 1.529 17.197 2.487 5.815.985 11.677 1.835 17.533 2.613 5.746.763 11.519 1.316 17.56 1.992.089.44.219 1.055.417 2.028-2.114.366-4.07.7-6.02 1.043-2.9.51-5.794 1.064-8.701 1.528-1.991.317-3.981.205-6.02.731-2.962.768-6.184.508-9.221 1.058-3.715.671-7.477.645-11.191 1.443-4.454.957-9.044 1.261-13.477 1.834-.143.221-.253.317-.239.395.02.126.082.294.185.355a87251.574 87251.574 0 0 0 47.043 28.399c-.089 1.218-.404 1.899-1.738 1.512-2.312-.672-4.658-1.206-6.97-1.882-8.093-2.368-16.11-5.061-24.291-7.067-6.13-1.503-12.136-3.339-18.128-5.266-.233-.075-.52.043-1.136.109 2.764 3.73 5.391 7.347 8.086 10.914 3.256 4.311 6.553 8.595 9.864 12.863 3.4 4.38 6.882 8.698 10.254 13.102 1.375 1.797 2.552 3.746 3.852 5.677-1.184 1.161-2.005.887-2.983.134-5.671-4.372-11.376-8.7-17.074-13.035-6.773-5.151-13.565-10.277-20.324-15.451-1.546-1.184-2.668-2.965-5.178-3.531.944 3.938 1.847 7.545 2.654 11.175.814 3.659 2.12 7.173 2.647 10.941.513 3.682 1.909 7.237 2.853 10.864.944 3.627 2.223 7.232 2.585 10.923.349 3.585 3.01 6.803 1.888 11.108-1.463-.877-2.12-1.724-2.708-2.81-4.522-8.28-9.126-16.518-13.688-24.775-3.072-5.558-6.109-11.134-9.201-16.678-.411-.736-1.06-1.335-1.909-2.373-.506 2.941-1.19 5.278-1.265 7.634-.151 5.152-1.649 10.094-1.888 15.263-.287 6.288-1.464 12.54-2.34 18.798-.445 3.186-1.033 6.356-1.642 9.517-.116.603-.615 1.132-1.327 2.378-.444-.819-.848-1.255-.923-1.744-.397-2.521-.705-5.056-1.047-7.585-.267-1.997-.56-3.99-.807-5.991-.219-1.867.048-3.713-.67-5.621-.74-1.965-.712-4.227-.965-6.364-.581-4.814-1.088-9.637-1.703-14.447-.643-5.064-1.375-10.116-2.046-15.048-9.474 15.622-19.03 31.396-28.614 47.154-.246.41-.794.639-1.307 1.03-1.149-.951-.944-1.998-.643-3.015 2.196-7.45 4.48-14.875 6.608-22.346 1.936-6.825 3.687-13.702 5.562-20.543.5-1.795 1.163-3.54 1.888-5.708-3.092.461-4.597 2.717-6.54 4.096-5.39 3.84-10.548 8.004-15.788 12.057-3.311 2.563-6.594 5.165-9.905 7.734a967.428 967.428 0 0 1-8.038 6.181c-.513.389-2.224.592-3.817.451 10.993-15.19 22.65-29.574 34.053-44.808-4.584.954-8.743 1.421-12.621 2.721-5.993 2.008-12.19 3.101-18.265 4.72-3.489.931-7.026 1.698-10.528 2.583-3.892.982-7.75 2.065-11.656 2.964-.575.132-1.32-.51-2.6-1.053 7.819-5.178 15.788-8.892 23.293-13.396 7.518-4.512 15.364-8.472 23.278-12.79-.567-.477-.916-1.033-1.34-1.093-2.805-.397-5.63-.633-8.428-1.026-3.318-.466-6.615-1.101-9.94-1.541-2.941-.39-5.91-.543-8.851-.931-3.318-.439-6.615-1.048-9.933-1.537-2.264-.334-4.535-.579-6.807-.884-2.38-.319-4.76-.662-7.134-.995-.15-1.66.684-2.209 1.86-2.33 3.23-.328 6.465-.52 9.68-.915 2.79-.344 5.555-.91 8.339-1.346 2.387-.376 4.774-.759 7.175-1.047 4.946-.594 9.906-1.078 14.845-1.7 4.528-.57 9.036-1.264 13.962-1.962-5.98-3.544-11.657-6.898-17.328-10.274-3.7-2.206-7.402-4.426-11.082-6.668-5.185-3.159-10.357-6.343-15.542-9.515-1.149-.703-2.408-1.28-3.4-2.159-.396-.354-.218-1.361-.362-2.53 8.927 2.64 17.286 5.506 25.844 7.538 8.544 2.029 16.705 5.565 25.906 6.857-10.946-14.278-21.542-28.1-32.11-41.889.355-1.475 1.087-1.89 2.298-1.015 2.62 1.895 5.28 3.749 7.832 5.735 5.446 4.239 10.802 8.593 16.254 12.82 5.554 4.3 11.17 8.514 16.78 12.741.746.558 1.594.97 2.654 1.607-1.128-4.636-2.175-9.014-3.256-13.385-2.435-9.875-4.877-19.748-7.326-29.618-.547-2.211-.91-4.516-1.813-6.579-.773-1.776-.472-3.397-.711-6.08z" fill="#C3F402"/></svg>