<svg width="68" height="135" fill="none" xmlns="http://www.w3.org/2000/svg"><path d="m9.305 74.543.171-.132c-.048-.052-.09-.14-.144-.148-.048-.008-.108.08-.163.124.046.052.09.105.136.156zm1.726-13.678.176-.132c-.05-.056-.096-.144-.151-.152-.05-.004-.11.08-.167.124.048.056.095.108.142.16zm2.295 1.153c.06-.048.118-.092.178-.136-.11-.012-.221-.02-.332-.032l.154.168zm-.699 1.954.028.349c.432-.032.863-.064 1.295-.1l-.026-.357-1.296.108zM7.885 78.676c.147.092.295.184.442.272l-.436-.276c-.145-.092-.29-.18-.434-.268.143.092.286.18.428.272zm-3.438-26.8c.698-1.578 1.506-3.124 2.071-4.75.913-2.627 1.638-5.317 2.494-7.964 2.083-6.443 4.192-12.878 6.298-19.313a4150.27 4150.27 0 0 1 5.218-15.857c.112-.34.373-.628.604-1.009 1.068.353 1.296.985.953 1.922-.445 1.221-.893 2.443-1.304 3.676-1.437 4.313-2.883 8.63-4.28 12.958-1.739 5.382-3.403 10.788-5.151 16.17-1.607 4.944-3.29 9.862-4.915 14.799-.172.52-.181 1.097-.266 1.65l-.527.853.363.156.162-1.01c1.127-2.021 2.31-4.015 3.368-6.074 1.79-3.487 3.44-7.043 5.26-10.515 2.907-5.538 5.95-11.008 8.845-16.554 1.417-2.715 2.577-5.561 3.95-8.3.998-1.995 2.154-3.913 3.24-5.863.862.46 1.365.793.922 1.638a579.777 579.777 0 0 0-3.722 7.272c-.796 1.57-1.537 3.171-2.354 4.733-1.817 3.468-3.71 6.9-5.49 10.383-2.98 5.83-5.9 11.692-8.836 17.547-1.037 2.07-2.628 3.888-2.885 6.306l-.271.445c.088-.152.177-.3.266-.449 1.588-2.058 3.197-4.1 4.757-6.178 2.135-2.843 4.23-5.722 6.348-8.581 1.115-1.506 2.265-2.987 3.359-4.505 2.076-2.891 4.103-5.814 6.189-8.693 2.307-3.188 4.665-6.335 6.984-9.51.771-1.058 1.47-2.163 2.245-3.216.486-.66.956-1.397 1.863-1.502.948 1.122.024 1.926-.398 2.627-.914 1.522-2.046 2.911-3.101 4.345-3.66 4.981-7.33 9.954-10.987 14.936-3.046 4.152-6.067 8.32-9.12 12.47-2.222 3.014-4.486 6.002-6.703 9.025-.204.276-.2.704-.292 1.06l-.58.565-.263.44c.095-.14.191-.275.287-.416.189-.192.377-.384.566-.58.707-.62 1.447-1.21 2.114-1.87 11.404-11.32 22.797-22.652 34.199-33.976.654-.65 1.354-1.254 2.008-1.854.967.56.822 1.185.382 1.738-.47.592-1.051 1.097-1.591 1.633-10.99 10.928-21.985 21.852-32.968 32.783-.662.66-1.237 1.41-1.852 2.114-.192.189-.384.377-.575.57l-.273.431.271-.432.572-.573c.431-.152.928-.212 1.282-.468 3.114-2.259 6.202-4.549 9.297-6.827 2.112-1.558 4.206-3.14 6.34-4.665 2.97-2.127 5.988-4.18 8.95-6.319 4.636-3.344 9.241-6.731 13.863-10.099.835-.609 1.648-1.261 2.552-1.75.285-.152.832.18 1.259.289-.112.424-.083 1.033-.358 1.237-3.31 2.463-6.672 4.853-10.006 7.28-4.318 3.143-8.604 6.33-12.943 9.446-2.201 1.581-4.516 3.011-6.728 4.58a832.761 832.761 0 0 0-10.93 7.921c-.359.26-.572.72-.852 1.09-.384.188-.767.38-1.293.788-.058.156.012.1.082.044-.068-.068-.136-.132-.203-.196-.06.064-.154.124-.17.2-.01.044.096.116.291-.048.525-.412.906-.6 1.288-.793.363-.084.763-.096 1.084-.264 4.44-2.282 8.848-4.629 13.313-6.863 3.09-1.55 6.297-2.867 9.383-4.425 5.37-2.703 10.68-5.522 16.025-8.277 2.249-1.157 4.52-2.27 7.096-3.564.154.209.426.573.668.897-.077.277-.07.545-.182.609-4.244 2.379-8.618 4.497-13.008 6.603-5.683 2.727-11.162 5.878-16.75 8.801-1.072.56-2.285.857-3.363 1.41-1.673.86-3.255 1.894-4.93 2.747-2.835 1.441-5.713 2.803-9.17 4.489 1.21 0 1.883.192 2.36-.033 4.259-1.99 8.857-2.959 13.288-4.428 5.313-1.758 10.602-3.604 15.976-5.162 4.39-1.273 8.521-3.311 13.089-4.076 1.806-.304 3.473-1.37 5.246-1.962.383-.128.948.284 1.646.516-1.79 1.65-3.84 2.09-5.748 2.715-6.03 1.978-12.108 3.804-18.152 5.734-5.423 1.734-10.828 3.528-16.238 5.306-3.45 1.133-6.893 2.287-10.306 3.624 5.853-.408 11.576-1.742 17.397-2.379 5.84-.636 11.606-1.93 17.416-2.867 5.8-.933 11.615-1.782 17.626-2.695l.145 1.734-52.574 8.27.022.376H68v1.733H12.688l-.008.293c1.999.272 4.004.516 5.997.829 3.786.596 7.564 1.245 11.348 1.854 2.123.344 4.25.652 6.374.993 4.058.648 8.115 1.313 12.172 1.974 1.754.284 3.498.724 5.262.829 2.449.144 4.822.608 7.21 1.093 1.65.336 3.346.456 5.022.668.84.105 1.423.457 1.39 1.578-.644.052-1.302.228-1.92.136-1.938-.288-3.853-.716-5.79-1.013-1.856-.28-3.739-.392-5.589-.696-4.052-.673-8.087-1.45-12.139-2.123-1.85-.308-3.724-.472-5.585-.713-2.974-.388-5.96-.7-8.916-1.197-2.478-.412-4.904-1.137-7.384-1.541-2.083-.337-4.21-.413-6.317-.433 16.856 5.45 33.713 10.9 50.565 16.37.247.08.43.356.715.608-.222.897-.924 1.278-1.65.941-3.15-1.465-6.632-1.858-9.833-3.243-3.148-1.362-6.595-2.018-9.876-3.096-4.788-1.565-9.468-3.52-14.335-4.765-4.262-1.089-8.204-3.135-12.59-3.816-1.057-.164-1.962-1.137-3.187-.985-.287-.168-.574-.34-.862-.512l-.15.352c.337.056.675.108 1.012.16.52.365 1.006.793 1.568 1.077 3.685 1.85 7.4 3.644 11.08 5.506 3.504 1.774 6.958 3.648 10.468 5.414 7.219 3.632 14.465 7.208 21.685 10.836.988.496 1.885 1.169 3 1.87-.475.48-.738.744-1.152 1.165-4.313-2.259-8.547-4.485-12.79-6.691-.661-.345-1.372-.597-2.043-.925a142.419 142.419 0 0 1-3.5-1.77c-.582-.308-1.118-.7-1.707-.993-5.892-2.911-11.793-5.806-17.686-8.714-2.348-1.16-4.677-2.354-7.028-3.507-.409-.2-.879-.28-1.322-.417-.28-.724-.7-1.201-2.23-.837 1.122.42 1.676.63 2.23.837.557.633 1.022 1.39 1.687 1.874 2.58 1.87 5.238 3.636 7.842 5.478 3.288 2.327 6.558 4.681 9.822 7.04 3.044 2.198 6.06 4.432 9.104 6.63 3.951 2.856 7.93 5.671 11.866 8.546.743.54 1.522 1.241.49 2.406-2.17-1.477-4.348-2.903-6.465-4.416-2.976-2.127-5.9-4.325-8.856-6.48-4.245-3.09-8.507-6.162-12.75-9.257-4.396-3.203-8.774-6.439-13.178-9.634-.355-.257-.852-.32-1.283-.473-.191-.192-.383-.38-.574-.572-.147-.085-.296-.173-.444-.257.149.084.297.172.447.257l.573.568c-.094.765.377 1.185.905 1.646.903.78 1.709 1.674 2.594 2.483.754.688 1.726 1.197 2.312 1.998 1.123 1.533 2.659 2.602 3.977 3.908 8.31 8.233 16.602 16.485 24.888 24.742.528.525 1.026 1.105 1.407 1.738.127.212-.08.721-.28.985-.114.156-.585.208-.781.1a5.634 5.634 0 0 1-1.344-.997c-2.857-2.935-5.66-5.926-8.547-8.833-1.502-1.514-3.177-2.855-4.702-4.349-1.874-1.834-3.65-3.764-5.51-5.61-1.91-1.898-3.888-3.728-5.806-5.618-3.049-3.003-6.066-6.038-9.114-9.041-.53-.525-1.146-.962-1.722-1.438l-.574-.569c-.191-.192-.382-.38-.574-.572l-.435-.276c.147.091.293.184.44.272.19.192.382.38.572.572.192.188.383.38.574.569.514.977.917 2.03 1.561 2.915 2.823 3.86 5.713 7.676 8.584 11.504 1.689 2.25 3.586 4.373 5.028 6.772 1.607 2.67 3.642 4.993 5.42 7.52 2.857 4.064 5.783 8.076 8.72 12.08.5.681.736 1.242.003 2.195-.751-.709-1.633-1.221-2.043-1.982-1.667-3.088-4.269-5.482-6.168-8.377-3.757-5.722-8.091-11.028-11.978-16.654-2.82-4.084-5.893-8-8.86-11.985-.703-.945-1.435-1.866-2.388-2.655 1.675 4.037 3.808 7.82 5.781 11.68 2.01 3.937 4.021 7.87 6.006 11.813 1.976 3.929 3.81 7.933 5.909 11.793 2.06 3.788 4.12 7.556 5.919 11.941-1.723-.341-2.245-1.134-2.703-2.095-.93-1.95-1.909-3.88-2.919-5.79-1.787-3.383-3.668-6.723-5.41-10.127-2.857-5.589-5.611-11.231-8.454-16.83-1.605-3.155-3.322-6.258-4.946-9.406-.69-1.337-1.272-2.726-2.26-3.964.265.961.444 1.95.809 2.871 2.469 6.231 4.284 12.666 6.19 19.077.61 2.046 1.565 3.988 2.216 6.026 1.78 5.57 3.453 11.176 5.232 16.75.566 1.77 1.298 3.492 2.018 5.21.348.832.252 1.453-.687 2.086-.28-.397-.673-.761-.826-1.206a1776.268 1776.268 0 0 1-5.16-15.316c-1.608-4.841-3.177-9.694-4.768-14.543-2.112-6.435-4.229-12.87-6.479-19.713-.087.832-.258 1.321-.165 1.75.768 3.547 1.39 7.111 1.715 10.735.241 2.679.827 5.33 1.29 7.988.287 1.642.641 3.276.95 4.918.377 2.002.806 4 1.086 6.018.232 1.662.196 3.328.561 5.017.964 4.445 1.619 8.958 2.325 13.455.157 1.001.023 2.046.023 3.111-1.17.18-1.567-.368-1.695-1.177-.597-3.768-1.127-7.548-1.77-11.308-.482-2.831-1.28-5.618-1.594-8.461-.227-2.046-.267-4.105-.666-6.143-.518-2.647-.89-5.317-1.37-7.972-.247-1.362-.678-2.695-.87-4.065-.287-2.038-.416-4.096-.651-6.138a100.371 100.371 0 0 0-.68-4.99c-.165-.996-.47-1.97-.868-3.595-.062 1.397-.126 2.186-.127 2.97-.006 16.246-.004 32.496-.006 48.741 0 .761.13 1.561-.076 2.262-.143.493-.757.845-1.517 1.622V.096C.426.068.854.044 1.526 0v54.438l.452.036c.439-3.135.866-6.267 1.32-9.398.4-2.763.792-5.526 1.257-8.277.263-1.55.748-3.063.987-4.617.582-3.768 1.192-7.54 1.687-11.316.57-4.34 1.354-8.62 2.289-12.89.397-1.817.493-3.707.635-5.57.073-.94.267-1.653 1.475-1.79.547 1.066.38 2.235.238 3.292-.335 2.483-.867 4.937-1.34 7.396-.264 1.365-.644 2.711-.84 4.085-.28 1.945-.375 3.916-.66 5.858-.445 3.03-.971 6.05-1.484 9.07a381.473 381.473 0 0 1-1.36 7.688c-.697 3.655-.705 7.407-1.658 11.031-.234.893-.062 1.89-.077 2.84-.851.376-.635.952-.157 1.857l.157-1.858z" fill="#F44200"/></svg>