<svg width="28" height="36" fill="none" xmlns="http://www.w3.org/2000/svg"><g fill="#CCCDC2"><path d="M21.276 13.215a11.675 11.675 0 0 1-.812-4.31v-.967c0-2.475-1.938-4.5-4.308-4.5 0-1.126-1.077-1.126-1.077-1.126h-3.23c-2.37 0-4.308 2.026-4.308 4.5v2.093c0 2.993-1.142 5.85-3.145 7.965l-1.163 1.215 1.594.832c1.637.855 3.597.518 4.868-.832h.016c.148.203.31.397.484.58a5.27 5.27 0 0 0 3.807 1.648 5.27 5.27 0 0 0 3.808-1.648c.175-.183.336-.377.484-.58h.016c1.292 1.35 3.252 1.688 4.868.832l1.594-.832-1.163-1.215a11.283 11.283 0 0 1-2.333-3.655zM19.387 22.563c3.575 0 6.462 3.015 6.462 6.75v4.5H2.156v-4.5c0-3.735 2.886-6.75 6.462-6.75h10.769z"/></g></svg>