<svg width="28" height="36" fill="none" xmlns="http://www.w3.org/2000/svg"><g fill="#CCCDC2"><path d="M7.722 9.524c-1.334-1.182-1.3-2.882-1.27-4.44.005-.23.01-.457.01-.68 0-1.196.504-1.022 1.167-.792.306.106.647.224.987.224.13 0 .262.016.391.045-.323-.562-.391-1.139-.391-1.139h6.461c2.37 0 4.308 1.969 4.308 4.375h1.077s.454 1.382-.088 2.455c.69.365 1.165 1.1 1.165 1.941 0 1.204-.97 2.188-2.154 2.188v1.094c0 1.45-.567 2.841-1.577 3.867A5.343 5.343 0 0 1 14 20.263a5.343 5.343 0 0 1-3.807-1.601 5.512 5.512 0 0 1-1.577-3.867V13.7c-1.185 0-2.154-.985-2.154-2.188 0-.88.518-1.642 1.26-1.989zM25.847 29.013c0-3.63-2.887-6.562-6.462-6.562H8.615c-3.575 0-6.46 2.931-6.46 6.562v4.375h23.692v-4.375z"/></g></svg>