<svg width="130" height="180" fill="none" xmlns="http://www.w3.org/2000/svg"><path fill-rule="evenodd" clip-rule="evenodd" d="M35.744 17.63a90.722 90.722 0 0 1 7.092-4.812L12.82 42.836a90.566 90.566 0 0 1 4.807-7.09L35.744 17.63zM75.466.723A85.601 85.601 0 0 1 78.14.33L.333 78.138c.117-.893.248-1.784.394-2.674L75.467.724zM99.007 0a88.01 88.01 0 0 1 2.053.227L.23 101.057A97.686 97.686 0 0 1 0 99.004L99.007 0zm18.862 3.95c.572.184 1.142.376 1.712.573L4.523 119.578c-.194-.567-.387-1.139-.571-1.711L117.869 3.949zm15.915 6.901c.489.27.975.546 1.457.825L11.679 135.239c-.28-.483-.556-.968-.825-1.458l122.93-122.93zm13.591 9.223c.417.345.832.689 1.242 1.04l-127.5 127.503c-.352-.413-.696-.827-1.04-1.244L147.375 20.074zm11.51 11.306c.35.413.696.827 1.038 1.245L32.627 159.923c-.419-.345-.834-.689-1.244-1.041L158.885 31.38zm9.438 13.378c.279.483.554.97.823 1.458L46.219 169.146c-.49-.27-.976-.544-1.458-.823L168.323 44.758zm7.154 15.661c.196.567.386 1.137.571 1.709L62.13 176.048a84.36 84.36 0 0 1-1.708-.574L175.477 60.419zm4.296 18.52c.084.685.159 1.37.227 2.054L80.995 180a110.22 110.22 0 0 1-2.053-.23L179.773 78.94zm-.104 22.918c-.117.895-.25 1.788-.393 2.676l-74.74 74.74a82.09 82.09 0 0 1-2.676.394l77.809-77.81zm-12.489 35.306a90.233 90.233 0 0 1-4.803 7.083l-18.126 18.127a90.632 90.632 0 0 1-7.088 4.806l30.017-30.016z" fill="#C3F402"/></svg>