<svg width="32" height="32" viewBox="0 0 32 32" fill="none" xmlns="http://www.w3.org/2000/svg">
<path d="M11 16C11.5523 16 12 16.4477 12 17C12 17.5523 11.5523 18 11 18C10.4477 18 10 17.5523 10 17C10 16.4477 10.4477 16 11 16Z" fill="#2B2D33"/>
<path d="M14 17C14 17.5523 14.4477 18 15 18C15.5523 18 16 17.5523 16 17C16 16.4477 15.5523 16 15 16C14.4477 16 14 16.4477 14 17Z" fill="#2B2D33"/>
<path d="M10 20C9.55278 20.8944 9.55288 20.8945 9.55298 20.8945L9.55565 20.8959L9.56142 20.8987L9.58138 20.9086C9.59834 20.9169 9.62251 20.9287 9.65314 20.9435C9.71436 20.9731 9.80165 21.0146 9.90906 21.0642C10.1231 21.163 10.4208 21.2954 10.7536 21.4285C11.0843 21.5608 11.4623 21.6989 11.8347 21.8053C12.1918 21.9073 12.6103 22 13 22C13.3897 22 13.8082 21.9073 14.1653 21.8053C14.5377 21.6989 14.9157 21.5608 15.2464 21.4285C15.5792 21.2954 15.8769 21.163 16.0909 21.0642C16.1983 21.0146 16.2856 20.9731 16.3469 20.9435C16.3775 20.9287 16.4017 20.9169 16.4186 20.9086L16.4386 20.8987L16.4443 20.8959L16.447 20.8945C16.4471 20.8945 16.4472 20.8944 16 20L15.5527 19.1056L15.5499 19.107L15.536 19.1139L15.4774 19.1424C15.4253 19.1676 15.3485 19.2041 15.2528 19.2483C15.0606 19.337 14.7958 19.4546 14.5036 19.5715C14.2093 19.6892 13.8998 19.8011 13.6159 19.8822C13.3168 19.9677 13.1103 20 13 20C12.8897 20 12.6832 19.9677 12.3841 19.8822C12.1002 19.8011 11.7907 19.6892 11.4964 19.5715C11.2042 19.4546 10.9394 19.337 10.7472 19.2483C10.6515 19.2041 10.5747 19.1676 10.5226 19.1424L10.464 19.1139L10.4501 19.107L10.4471 19.1055C10.4471 19.1055 10.4472 19.1056 10 20Z" fill="#2B2D33"/>
<path d="M21 12C20.4477 12 20 11.5523 20 11C20 10.4477 20.4477 10 21 10C21.5523 10 22 10.4477 22 11C22 11.5523 21.5523 12 21 12Z" fill="#2B2D33"/>
<path fill-rule="evenodd" clip-rule="evenodd" d="M12 7C12 6.44772 12.4477 6 13 6H25C25.5523 6 26 6.44772 26 7V14C26 15.7131 25.4301 17.4588 24.2474 18.7894C23.1826 19.9873 21.6619 20.801 19.744 20.9681C19.4702 21.9961 18.9746 22.9712 18.2474 23.7894C17.0484 25.1383 15.2714 26 13 26C10.7286 26 8.95164 25.1383 7.75259 23.7894C6.5699 22.4588 6 20.7131 6 19V13C6 12.4477 6.44772 12 7 12H12V7ZM8 14V19C8 20.2869 8.4301 21.5412 9.24741 22.4606C10.0484 23.3617 11.2714 24 13 24C14.7286 24 15.9516 23.3617 16.7526 22.4606C17.1549 22.0081 17.4633 21.4744 17.6729 20.8957C17.8891 20.2986 18 19.6535 18 19V14H8ZM20 18.9228V16.2399C20.1678 16.2979 20.3381 16.3623 20.5036 16.4285C20.7958 16.5454 21.0606 16.663 21.2528 16.7517C21.3485 16.7959 21.4253 16.8324 21.4774 16.8576L21.536 16.8861L21.5499 16.893L21.5529 16.8945C21.5529 16.8945 21.5528 16.8944 22 16C22.4472 15.1056 22.447 15.1055 22.447 15.1055L22.4443 15.1041L22.4386 15.1013L22.4186 15.0914L22.3893 15.0771L22.3469 15.0565C22.2856 15.0269 22.1983 14.9854 22.0909 14.9358C21.8769 14.837 21.5792 14.7046 21.2464 14.5715C20.9157 14.4392 20.5377 14.3011 20.1653 14.1947C20.1115 14.1793 20.0563 14.1642 20 14.1495V13C20 12.4477 19.5523 12 19 12H17C17.5523 12 18 11.5523 18 11C18 10.4477 17.5523 10 17 10C16.4477 10 16 10.4477 16 11C16 11.5523 16.4477 12 17 12H14V8H24V14C24 15.2869 23.5699 16.5412 22.7526 17.4606C22.1158 18.177 21.2123 18.7273 20 18.9228Z" fill="#2B2D33"/>
</svg>
