<svg width="32" height="32" viewBox="0 0 32 32" fill="none" xmlns="http://www.w3.org/2000/svg">
<path fill-rule="evenodd" clip-rule="evenodd" d="M20.5 7C18.0147 7 16 9.01472 16 11.5C16 13.9853 18.0147 16 20.5 16C22.9853 16 25 13.9853 25 11.5C25 9.01472 22.9853 7 20.5 7ZM18 11.5C18 10.1193 19.1193 9 20.5 9C21.8807 9 23 10.1193 23 11.5C23 12.8807 21.8807 14 20.5 14C19.1193 14 18 12.8807 18 11.5Z" fill="#2B2D33"/>
<path d="M20.5001 17C16.09 17 13.5 20.5344 13.5 24H15.5C15.5 21.4656 17.3602 19 20.5001 19C23.6399 19 25.5 21.4656 25.5 24H27.5C27.5 20.5344 24.9102 17 20.5001 17Z" fill="#2B2D33"/>
<path d="M4.5 25C4.5 21.6209 6.82886 18 11.0001 18C11.9969 18 12.9092 18.2134 13.7159 18.5968L12.8575 20.4032C12.3241 20.1497 11.7057 20 11.0001 20C8.25048 20 6.5 22.3791 6.5 25H4.5Z" fill="#2B2D33"/>
<path fill-rule="evenodd" clip-rule="evenodd" d="M11 9C8.79086 9 7 10.7909 7 13C7 15.2091 8.79086 17 11 17C13.2091 17 15 15.2091 15 13C15 10.7909 13.2091 9 11 9ZM9 13C9 11.8954 9.89543 11 11 11C12.1046 11 13 11.8954 13 13C13 14.1046 12.1046 15 11 15C9.89543 15 9 14.1046 9 13Z" fill="#2B2D33"/>
</svg>
