<svg width="34" height="49" viewBox="0 0 34 49" fill="none" xmlns="http://www.w3.org/2000/svg">
<g id="geotag">
<g id="Vector">
<path d="M33 17.0822C33 24.0333 23.2005 40.2147 18.9397 46.9217C18.0264 48.3594 15.9736 48.3594 15.0603 46.9217C10.7995 40.2147 1 24.0333 1 17.0822C1 8.20027 8.16344 1 17 1C25.8366 1 33 8.20027 33 17.0822Z" fill="#C3F402"/>
<path d="M19.3618 47.1898C21.4953 43.8314 25.0193 38.0952 28.0115 32.3237C29.5075 29.4383 30.875 26.5355 31.8698 23.9112C32.8596 21.3 33.5 18.9148 33.5 17.0822C33.5 7.92655 26.1151 0.5 17 0.5C7.88489 0.5 0.5 7.92655 0.5 17.0822C0.5 18.9148 1.1404 21.3 2.13021 23.9112C3.12495 26.5355 4.49253 29.4383 5.98846 32.3236C8.98075 38.0952 12.5047 43.8314 14.6382 47.1898C15.748 48.9367 18.252 48.9367 19.3618 47.1898Z" stroke="#141513"/>
</g>
<path id="Ellipse 446" d="M22.3538 17.0586C22.3538 20.0288 19.9552 22.4336 17.0001 22.4336C14.0451 22.4336 11.6465 20.0288 11.6465 17.0586C11.6465 14.0883 14.0451 11.6836 17.0001 11.6836C19.9552 11.6836 22.3538 14.0883 22.3538 17.0586Z" fill="white" stroke="#141513"/>
</g>
</svg>
