<svg width="48" height="48" viewBox="0 0 48 48" fill="none" xmlns="http://www.w3.org/2000/svg">
<path d="M23.4141 30.4141L33.4141 20.4141L30.5857 17.5857L21.9999 26.1715L16.4141 20.5857L13.5857 23.4141L20.5857 30.4141C21.3667 31.1952 22.6331 31.1952 23.4141 30.4141Z" fill="#C3F402"/>
<path fill-rule="evenodd" clip-rule="evenodd" d="M24 4C12.9543 4 4 12.9543 4 24C4 35.0457 12.9543 44 24 44C35.0457 44 44 35.0457 44 24C44 12.9543 35.0457 4 24 4ZM8 24C8 15.1634 15.1634 8 24 8C32.8366 8 40 15.1634 40 24C40 32.8366 32.8366 40 24 40C15.1634 40 8 32.8366 8 24Z" fill="#C3F402"/>
</svg>
