<svg width="32" height="32" viewBox="0 0 32 32" fill="none" xmlns="http://www.w3.org/2000/svg">
<path fill-rule="evenodd" clip-rule="evenodd" d="M18.6797 25.9473L13 24.0541L7.31623 25.9487C7.01128 26.0503 6.67606 25.9992 6.41529 25.8112C6.15452 25.6233 6 25.3214 6 25V17H8L8 23.6126L12 22.2792L12 19H14V22.2792L18 23.6126V11.7808L16.7575 11.4701L17.2425 9.52986L18.96 9.95923L24.6838 8.05132C24.9887 7.94967 25.3239 8.00081 25.5847 8.18876C25.8455 8.37671 26 8.67856 26 9L26 23C26 23.4304 25.7246 23.8126 25.3162 23.9487L19.3162 25.9487C19.1256 26.0122 18.9232 26.0161 18.7345 25.9641C18.7161 25.9591 18.6979 25.9535 18.6797 25.9473ZM20 11.7208V23.6126L24 22.2792L24 10.3874L20 11.7208Z" fill="#2B2D33"/>
<path d="M10.5 11C11.0523 11 11.5 10.5523 11.5 10C11.5 9.44771 11.0523 9 10.5 9C9.94772 9 9.5 9.44771 9.5 10C9.5 10.5523 9.94772 11 10.5 11Z" fill="#2B2D33"/>
<path fill-rule="evenodd" clip-rule="evenodd" d="M9.9 16.8C10.2556 17.0667 10.7449 17.0663 11.1005 16.7997L11.1024 16.7982L11.1062 16.7953L11.1181 16.7863L11.1585 16.7551C11.1925 16.7287 11.2405 16.6909 11.3004 16.6426C11.42 16.5459 11.5879 16.4063 11.7879 16.2292C12.1866 15.8762 12.72 15.368 13.2564 14.7479C14.2921 13.5503 15.5 11.7517 15.5 9.75C15.5 7.06683 13.1996 5 10.5 5C7.80035 5 5.5 7.06683 5.5 9.75C5.5 11.7517 6.70791 13.5503 7.74364 14.7479C8.27996 15.368 8.81344 15.8762 9.21209 16.2292C9.41211 16.4063 9.57996 16.5459 9.69963 16.6426C9.7595 16.6909 9.80745 16.7287 9.84148 16.7551L9.88188 16.7863L9.89381 16.7953L9.89764 16.7982L9.899 16.7993L9.9 16.8ZM10.5 7C12.2186 7 13.5 8.29103 13.5 9.75C13.5 10.9983 12.7079 12.3247 11.7436 13.4396C11.2964 13.9567 10.8466 14.3889 10.5 14.6981C10.1534 14.3889 9.70356 13.9567 9.25636 13.4396C8.29209 12.3247 7.5 10.9983 7.5 9.75C7.5 8.29103 8.78137 7 10.5 7Z" fill="#2B2D33"/>
<path fill-rule="evenodd" clip-rule="evenodd" d="M11.5 10C11.5 10.5523 11.0523 11 10.5 11C9.94772 11 9.5 10.5523 9.5 10C9.5 9.44771 9.94772 9 10.5 9C11.0523 9 11.5 9.44771 11.5 10Z" fill="#2B2D33"/>
</svg>
