<svg width="32" height="32" viewBox="0 0 32 32" fill="none" xmlns="http://www.w3.org/2000/svg">
<path fill-rule="evenodd" clip-rule="evenodd" d="M16 6C13.2386 6 11 8.23858 11 11C11 13.7614 13.2386 16 16 16C18.7614 16 21 13.7614 21 11C21 8.23858 18.7614 6 16 6ZM13 11C13 9.34315 14.3431 8 16 8C17.6569 8 19 9.34315 19 11C19 12.6569 17.6569 14 16 14C14.3431 14 13 12.6569 13 11Z" fill="#2B2D33"/>
<path d="M16.0001 17C10.5897 17 7.5 21.5983 7.5 26H9.5C9.5 22.4017 11.9731 19 16.0001 19C20.0271 19 22.5 22.4017 22.5 26H24.5C24.5 21.5983 21.4106 17 16.0001 17Z" fill="#2B2D33"/>
</svg>
