<svg width="32" height="32" viewBox="0 0 32 32" fill="none" xmlns="http://www.w3.org/2000/svg">
<path d="M23.5004 16C23.5004 15.8 23.5004 15.6 23.5004 15.5L26.1004 13.6L26.0004 12.9C26.0004 12.8 25.8004 11.9 25.1004 10.7C24.4004 9.5 23.8004 9 23.7004 8.9L23.2004 8.5L20.2004 9.8C19.9004 9.6 19.6004 9.4 19.3004 9.3L18.9004 6L18.3004 5.8C18.2004 5.8 17.3004 5.5 16.0004 5.5C14.7004 5.5 13.8004 5.8 13.7004 5.8L13.1004 6L12.7004 9.3C12.4004 9.4 12.1004 9.6 11.8004 9.8L8.80039 8.5L8.30039 8.9C8.20039 9 7.60039 9.6 6.90039 10.8C6.30039 11.9 6.00039 12.8 6.00039 12.9L5.90039 13.5L8.50039 15.4C8.50039 15.6 8.50039 15.8 8.50039 15.9C8.50039 16 8.50039 16.3 8.50039 16.4L5.90039 18.3L6.00039 19.1C6.00039 19.2 6.20039 20.1 6.90039 21.3C7.60039 22.4 8.20039 23.1 8.30039 23.1L8.80039 23.5L11.8004 22.2C12.1004 22.4 12.4004 22.6 12.7004 22.7L13.1004 26L13.7004 26.2C13.8004 26.2 14.7004 26.5 16.0004 26.5C17.3004 26.5 18.2004 26.2 18.3004 26.2L18.9004 26L19.3004 22.8C19.6004 22.6 19.9004 22.5 20.2004 22.3L23.2004 23.6L23.7004 23.2C23.8004 23.1 24.5004 22.5 25.1004 21.4C25.7004 20.3 26.0004 19.4 26.0004 19.2L26.1004 18.6L23.5004 16.7C23.5004 16.4 23.5004 16.2 23.5004 16ZM23.8004 19.3C23.7004 19.6 23.5004 19.9 23.3004 20.3C23.1004 20.7 22.9004 21 22.7004 21.2L19.9004 20L19.4004 20.4C19.0004 20.8 18.5004 21 17.9004 21.2L17.3004 21.4L17.0004 24.5C16.4004 24.6 15.4004 24.6 14.8004 24.5L14.5004 21.4L14.0004 21.1C13.5004 20.9 13.0004 20.6 12.5004 20.3L12.0004 19.9L9.20039 21.1C9.00039 20.9 8.80039 20.6 8.60039 20.2C8.40039 19.8 8.20039 19.5 8.10039 19.2L10.6004 17.4L10.5004 16.8C10.5004 16.5 10.4004 16.2 10.4004 16C10.4004 15.8 10.4004 15.4 10.5004 15.2L10.6004 14.6L8.20039 12.7C8.30039 12.4 8.50039 12.1 8.70039 11.7C8.90039 11.3 9.10039 11 9.30039 10.8L12.1004 12L12.6004 11.6C13.0004 11.4 13.5004 11.1 14.0004 10.9L14.6004 10.7L14.9004 7.6C15.5004 7.5 16.5004 7.5 17.1004 7.6L17.4004 10.7L18.0004 10.9C18.5004 11.1 19.0004 11.4 19.5004 11.7L20.0004 12.1L22.8004 10.9C23.0004 11.1 23.2004 11.4 23.4004 11.8C23.6004 12.2 23.8004 12.5 23.9004 12.8L21.4004 14.6L21.5004 15.2C21.5004 15.5 21.6004 15.8 21.6004 16C21.6004 16.2 21.6004 16.6 21.5004 16.8L21.4004 17.4L23.8004 19.3Z" fill="#2B2D33"/>
<path d="M16.0004 18C17.105 18 18.0004 17.1046 18.0004 16C18.0004 14.8954 17.105 14 16.0004 14C14.8958 14 14.0004 14.8954 14.0004 16C14.0004 17.1046 14.8958 18 16.0004 18Z" fill="#2B2D33"/>
</svg>
