<svg width="143" height="138" fill="none" xmlns="http://www.w3.org/2000/svg"><path d="M19.56 118.633c-.089-.116-.178-.232-.268-.346-.106.097-.285.183-.301.292-.016.097.163.218.252.328l.318-.274zm-27.81-3.489-.269-.355c-.114.101-.293.193-.31.305-.008.101.164.224.253.338.114-.097.22-.192.326-.288zm2.344-4.638c-.097-.12-.187-.239-.276-.359-.025.223-.041.447-.065.671l.341-.312zm3.973 1.412.709-.056c-.065-.872-.13-1.744-.204-2.617l-.725.052.22 2.621zm29.896 9.585c.187-.298.374-.596.553-.894l-.561.881c-.188.293-.367.586-.546.878.187-.288.366-.577.554-.865zm-54.49 6.949c-3.209-1.412-6.351-3.043-9.657-4.186-5.34-1.845-10.811-3.31-16.193-5.04-13.1-4.211-26.183-8.473-39.266-12.73a8378.175 8378.175 0 0 1-32.24-10.546c-.692-.226-1.278-.754-2.051-1.22.716-2.16 2.002-2.621 3.907-1.928 2.483.9 4.967 1.805 7.474 2.636 8.769 2.905 17.545 5.827 26.346 8.652 10.942 3.513 21.933 6.877 32.875 10.41 10.054 3.247 20.052 6.648 30.09 9.933 1.059.348 2.231.367 3.355.539l1.734 1.064.317-.732-2.051-.328c-4.112-2.277-8.166-4.671-12.35-6.807-7.092-3.62-14.322-6.952-21.38-10.632-11.26-5.875-22.38-12.028-33.657-17.877-5.52-2.865-11.308-5.21-16.877-7.983-4.055-2.019-7.954-4.354-11.919-6.549.936-1.743 1.612-2.759 3.33-1.865 4.901 2.551 9.843 5.039 14.785 7.523 3.191 1.61 6.448 3.106 9.623 4.76 7.05 3.67 14.028 7.497 21.11 11.096 11.854 6.022 23.774 11.924 35.676 17.857 4.21 2.097 7.906 5.312 12.823 5.833l.904.547c-.31-.178-.61-.358-.912-.538-4.185-3.209-8.337-6.462-12.563-9.614-5.78-4.317-11.633-8.551-17.447-12.831-3.06-2.255-6.073-4.577-9.159-6.789-5.878-4.197-11.82-8.293-17.675-12.509-6.48-4.663-12.88-9.428-19.335-14.117-2.15-1.558-4.397-2.971-6.538-4.536-1.343-.984-2.841-1.933-3.053-3.767 2.28-1.915 3.916-.048 5.341.805 3.094 1.847 5.918 4.136 8.833 6.268 10.128 7.398 20.24 14.816 30.368 22.206 8.442 6.158 16.918 12.264 25.352 18.434 6.13 4.491 12.204 9.067 18.35 13.548.563.411 1.434.403 2.158.59l1.148 1.174c.302.176.595.353.896.53-.285-.193-.562-.387-.847-.58-.39-.382-.782-.763-1.18-1.145-1.262-1.428-2.46-2.925-3.802-4.272-23.016-23.05-46.056-46.078-69.08-69.122-1.32-1.322-2.549-2.738-3.77-4.06 1.14-1.954 2.41-1.66 3.533-.772 1.205.95 2.231 2.126 3.322 3.217 22.218 22.214 44.428 44.435 66.654 66.633 1.343 1.339 2.866 2.501 4.299 3.745.382.387.765.775 1.156 1.162l.879.551-.88-.548c-.39-.386-.78-.771-1.163-1.156-.31-.872-.432-1.876-.953-2.592-4.592-6.292-9.249-12.534-13.881-18.79-3.167-4.269-6.383-8.502-9.485-12.815-4.323-6-8.5-12.103-12.847-18.088-6.798-9.371-13.686-18.678-20.533-28.02-1.237-1.688-2.564-3.332-3.558-5.16-.309-.574.367-1.68.587-2.543.863.227 2.1.167 2.515.724 5.007 6.69 9.868 13.484 14.801 20.223 6.391 8.727 12.872 17.391 19.206 26.16 3.216 4.45 6.122 9.129 9.314 13.598 5.292 7.416 10.69 14.761 16.104 22.093.529.724 1.465 1.156 2.214 1.723.383.774.773 1.548 1.604 2.611.317.118.204-.023.09-.164-.139.137-.269.273-.4.41.131.122.253.311.408.344.09.02.236-.196-.098-.59-.839-1.06-1.221-1.831-1.612-2.602-.171-.735-.195-1.542-.537-2.19-4.641-8.977-9.412-17.884-13.955-26.909-3.15-6.247-5.83-12.728-8.996-18.965-5.495-10.853-11.227-21.587-16.828-32.39-2.353-4.544-4.617-9.136-7.246-14.341l1.823-1.35c.562.154 1.108.142 1.238.367 4.836 8.577 9.143 17.418 13.425 26.292 5.544 11.487 11.952 22.56 17.895 33.854 1.14 2.167 1.742 4.618 2.866 6.797 1.75 3.381 3.85 6.58 5.585 9.965 2.93 5.73 5.699 11.546 9.126 18.532 0-2.443.391-3.803-.065-4.766-4.046-8.609-6.016-17.903-9.004-26.859-3.574-10.738-7.327-21.43-10.494-32.29-2.59-8.872-6.734-17.224-8.289-26.456-.618-3.65-2.784-7.02-3.989-10.602-.26-.775.578-1.917 1.05-3.327 3.355 3.619 4.25 7.761 5.52 11.618 4.022 12.186 7.735 24.471 11.659 36.687 3.525 10.962 7.172 21.885 10.787 32.82 2.304 6.972 4.649 13.932 7.368 20.831-.83-11.831-3.541-23.397-4.836-35.164-1.294-11.803-3.924-23.456-5.829-35.2-1.897-11.724-3.623-23.477-5.48-35.625l3.526-.293L1.674 107.205l.765-.044V0h3.526v111.796l.594.017c.553-4.042 1.05-8.094 1.685-12.122 1.213-7.653 2.532-15.289 3.77-22.936.7-4.29 1.327-8.593 2.019-12.884 1.319-8.202 2.67-16.402 4.014-24.602.578-3.545 1.473-7.07 1.685-10.635.293-4.95 1.237-9.746 2.222-14.573.684-3.335.928-6.762 1.36-10.15.212-1.699.928-2.875 3.208-2.809.106 1.3.464 2.63.276 3.88-.586 3.917-1.457 7.789-2.06 11.704-.57 3.75-.797 7.555-1.416 11.295-1.368 8.19-2.947 16.345-4.315 24.534-.627 3.739-.96 7.527-1.449 11.29-.79 6.011-1.425 12.045-2.434 18.02-.839 5.009-2.313 9.912-3.135 14.924-.684 4.21-.838 8.508-.879 12.768 11.08-34.069 22.161-68.14 33.282-102.2.163-.5.725-.869 1.238-1.445 1.823.447 2.597 1.868 1.913 3.334-2.98 6.366-3.778 13.404-6.595 19.875-2.768 6.362-4.103 13.33-6.293 19.961-3.184 9.677-7.157 19.137-9.688 28.974-2.215 8.614-6.375 16.582-7.76 25.444-.333 2.139-2.311 3.968-2.002 6.444-.342.58-.692 1.16-1.042 1.741.236.101.48.202.716.304.114-.682.22-1.364.326-2.045.741-1.052 1.612-2.034 2.19-3.169 3.761-7.449 7.409-14.958 11.195-22.395 3.606-7.083 7.416-14.064 11.007-21.157 7.384-14.591 14.654-29.237 22.03-43.83 1.01-1.996 2.378-3.81 3.802-6.062.977.958 1.515 1.49 2.37 2.326-4.592 8.718-9.119 17.276-13.605 25.85-.7 1.338-1.213 2.774-1.88 4.13a286.983 286.983 0 0 1-3.599 7.074c-.627 1.177-1.425 2.26-2.019 3.452C40.777 68.03 34.891 79.958 28.98 91.869c-2.36 4.744-4.787 9.453-7.131 14.204-.407.827-.57 1.777-.847 2.672-1.474.566-2.443 1.415-1.702 4.507a5156.37 5156.37 0 0 1 1.702-4.507c1.286-1.126 2.825-2.065 3.81-3.41 3.802-5.215 7.392-10.587 11.137-15.848 4.73-6.646 9.518-13.256 14.313-19.854 4.47-6.151 9.013-12.248 13.482-18.4 5.805-7.986 11.528-16.029 17.374-23.984 1.099-1.5 2.524-3.075 4.893-.988-3.004 4.383-5.902 8.787-8.98 13.065-4.323 6.015-8.793 11.923-13.173 17.9-6.285 8.58-12.53 17.193-18.823 25.77-6.513 8.886-13.091 17.733-19.588 26.636-.521.716-.651 1.721-.96 2.592-.391.386-.774.773-1.165 1.159-.17.299-.35.599-.521.898.171-.3.35-.601.521-.902.383-.386.774-.773 1.156-1.159 1.555.189 2.41-.763 3.346-1.83 1.588-1.824 3.403-3.453 5.048-5.241 1.4-1.526 2.434-3.49 4.063-4.674 3.118-2.27 5.291-5.374 7.945-8.039a25113.614 25113.614 0 0 1 50.306-50.303c1.067-1.068 2.247-2.073 3.534-2.844.431-.256 1.465.162 2.003.565.317.232.423 1.184.203 1.58-.537.982-1.221 1.937-2.027 2.716-5.968 5.776-12.05 11.442-17.96 17.276-3.078 3.035-5.805 6.421-8.842 9.504-3.728 3.786-7.653 7.377-11.406 11.136-3.859 3.861-7.58 7.858-11.422 11.734-6.106 6.163-12.277 12.261-18.383 18.422-1.067 1.072-1.955 2.316-2.923 3.481-.383.386-.774.773-1.157 1.16-.39.386-.773.772-1.164 1.16l-.561.878c.187-.296.374-.592.553-.887.391-.387.774-.773 1.164-1.159.383-.386.774-.772 1.157-1.159 1.986-1.038 4.127-1.853 5.927-3.155 7.848-5.706 15.607-11.548 23.39-17.35 4.575-3.413 8.89-7.248 13.767-10.163 5.43-3.247 10.152-7.361 15.29-10.953 8.263-5.775 16.421-11.69 24.562-17.626 1.384-1.01 2.524-1.487 4.462-.006-1.441 1.519-2.483 3.3-4.03 4.13-6.277 3.37-11.146 8.627-17.032 12.467-11.634 7.593-22.422 16.354-33.86 24.21-8.305 5.7-16.267 11.91-24.368 17.908-1.92 1.42-3.794 2.9-5.397 4.825 8.206-3.385 15.9-7.697 23.748-11.685 8.003-4.061 15.998-8.127 24.017-12.139 7.987-3.993 16.129-7.698 23.977-11.942 7.702-4.163 15.363-8.328 24.277-11.964-.692 3.483-2.304 4.537-4.258 5.463a322.964 322.964 0 0 0-11.772 5.9c-6.879 3.613-13.67 7.415-20.59 10.935-11.365 5.775-22.836 11.341-34.218 17.087-6.416 3.243-12.725 6.714-19.124 9.997-2.72 1.392-5.544 2.57-8.06 4.569 1.954-.536 3.965-.899 5.837-1.636 12.668-4.99 25.752-8.659 38.786-12.514 4.16-1.23 8.109-3.16 12.253-4.476 11.325-3.598 22.722-6.98 34.055-10.576 3.599-1.142 7.1-2.623 10.592-4.078 1.694-.704 2.956-.51 4.242 1.388-.806.565-1.547 1.361-2.451 1.669a3650.893 3650.893 0 0 1-31.141 10.431c-9.843 3.249-19.71 6.421-29.57 9.636-13.082 4.268-26.166 8.547-40.08 13.094 1.694.177 2.687.522 3.558.334 7.214-1.552 14.46-2.807 21.828-3.466 5.446-.487 10.836-1.671 16.242-2.608 3.338-.58 6.66-1.295 9.997-1.919 4.071-.763 8.134-1.628 12.237-2.196 3.379-.468 6.766-.395 10.201-1.134 9.037-1.946 18.212-3.27 27.355-4.698 2.036-.318 4.16-.047 6.326-.047.366 2.364-.749 3.167-2.393 3.426-7.661 1.207-15.347 2.279-22.992 3.577-5.756.976-11.422 2.587-17.203 3.223-4.16.457-8.344.54-12.489 1.346-5.381 1.046-10.811 1.799-16.209 2.77-2.768.498-5.48 1.368-8.264 1.758-4.144.58-8.328.839-12.48 1.315-3.387.388-6.782.816-10.145 1.373-2.027.335-4.005.95-7.31 1.756 2.84.125 4.445.255 6.04.256 33.03.012 66.068.009 99.098.012 1.547 0 3.175-.261 4.6.154 1.001.29 1.717 1.531 3.297 3.066h-274.285c-.057-.861-.105-1.725-.195-3.085h110.683l.073-.913c-6.375-.887-12.742-1.75-19.108-2.666-5.618-.809-11.235-1.603-16.828-2.543-3.15-.53-6.228-1.51-9.387-1.995-7.661-1.175-15.33-2.408-23.008-3.409-8.825-1.151-17.528-2.737-26.207-4.625-3.696-.804-7.539-.998-11.325-1.286-1.913-.146-3.362-.539-3.639-2.98 2.165-1.105 4.543-.768 6.692-.48 5.048.677 10.038 1.75 15.037 2.708 2.776.532 5.512 1.301 8.305 1.698 3.956.563 7.962.757 11.91 1.334 6.163.898 12.302 1.963 18.44 2.999 5.22.88 10.438 1.763 15.632 2.748 7.433 1.409 15.062 1.425 22.43 3.351 1.815.474 3.843.126 5.772.156.765 1.72 1.938 1.284 3.778.318l-3.778-.318z" fill="#C3F402"/></svg>