<svg width="90" height="90" fill="none" xmlns="http://www.w3.org/2000/svg"><path fill-rule="evenodd" clip-rule="evenodd" d="M17.872 8.815a45.35 45.35 0 0 1 3.546-2.406L6.41 21.419a45.267 45.267 0 0 1 2.404-3.546l9.058-9.058zM37.733.362c.444-.073.89-.138 1.337-.197L.166 39.069c.059-.446.125-.892.197-1.337L37.733.362zM49.503 0c.343.034.685.071 1.027.113L.115 50.53c-.042-.342-.08-.685-.115-1.027L49.504 0zm9.432 1.975c.286.092.57.188.855.287L2.262 59.789a50.75 50.75 0 0 1-.286-.855l56.959-56.96zm7.957 3.45c.245.135.487.274.729.413L5.839 67.619c-.139-.241-.277-.484-.412-.729L66.892 5.425zm6.796 4.612c.208.172.416.345.62.52l-63.75 63.751a54.366 54.366 0 0 1-.52-.622l63.65-63.649zm5.754 5.653c.175.206.349.414.52.623L16.314 79.962c-.21-.173-.418-.345-.623-.52L79.442 15.69zm4.72 6.69c.14.24.276.484.411.728L23.109 84.573a44.235 44.235 0 0 1-.729-.411l61.782-61.783zm3.576 7.83c.099.283.194.568.286.854l-56.959 56.96a43.91 43.91 0 0 1-.854-.287L87.738 30.21zm2.148 9.26c.043.342.08.684.114 1.026L40.498 90a54.232 54.232 0 0 1-1.027-.115L89.886 39.47zm-.051 11.458c-.059.448-.126.895-.197 1.339l-37.37 37.37c-.444.072-.89.138-1.338.197l38.905-38.906zM83.59 68.582a45.02 45.02 0 0 1-2.401 3.541l-9.064 9.063a45.336 45.336 0 0 1-3.543 2.404L83.59 68.582z" fill="#C3F402"/></svg>