<svg width="88" height="150" fill="none" xmlns="http://www.w3.org/2000/svg"><path d="m74.171 101.095-.138.191.24.026-.102-.217zM-34.01 28.229c-.16-.088-.32-.176-.484-.264.149.1.303.199.452.298.218.205.436.41.659.614l.638.63c.17.476.234 1.035.526 1.414 2.515 3.212 5.099 6.364 7.598 9.584 3.195 4.12 6.332 8.28 9.48 12.434 1.174 1.55 2.307 3.131 3.684 5.01-.93.189-1.505.473-2.005.37-.909-.188-1.744-.695-2.653-.912-8.804-2.104-17.438-4.785-26.13-7.274-1.394-.398-2.797-1.048-4.839-.8 5.737 3.379 11.107 6.398 16.322 9.657 5.28 3.3 10.867 6.138 16.12 10.016-.755.445-1.17.864-1.632.934-4.434.672-8.858 1.462-13.324 1.857-3.344.296-6.635.766-9.947 1.294-4.02.642-8.081 1.01-12.893 1.588 1.255.472 1.84.824 2.457.902 2.286.288 4.593.43 6.88.731 4.343.573 8.665 1.253 13.009 1.821 3.732.49 7.486.845 11.213 1.357.744.101 1.424.646 2.1.97-.144.427-.154.718-.287.792-10.453 5.86-20.91 11.703-31.501 17.618.42.044.744.165 1.015.094 3.419-.891 6.821-1.856 10.245-2.706 2.122-.526 4.301-.805 6.412-1.341 6.04-1.533 12.053-3.157 18.093-4.69.526-.134 1.158.131 2.456.31-7.73 10.459-15.626 20.155-22.915 30.318 2.701-1.829 5.173-3.872 7.73-5.811 5.078-3.855 10.203-7.655 15.312-11.471 1.59-1.187 3.206-2.341 4.785-3.54.819-.622 1.35-.292 1.824.447-3.296 11.423-6.598 22.859-9.9 34.295 2.536-3.431 4.658-7.061 6.827-10.666 2.148-3.564 4.322-7.11 6.507-10.65 2.223-3.593 4.472-7.167 6.896-11.049.627.766 1.244 1.175 1.324 1.669.51 3.163.94 6.341 1.329 9.521.49 4.016.872 8.042 1.377 12.056.335 2.66.813 5.301 1.201 7.955.335 2.296.633 4.596.947 6.894.707-3.248 1.17-6.515 1.558-9.79.281-2.37.164-4.839.813-7.1.447-1.57.282-3.099.574-4.623.436-2.225.819-4.461 1.143-6.706.293-2.053.426-4.129.734-6.179.096-.653.542-1.254.904-2.05.585.62 1.122 1.017 1.43 1.541 1.063 1.79 2.052 3.625 3.062 5.444 3.334 5.988 6.64 11.989 10.011 17.958 1.16 2.058 2.462 4.038 3.7 6.054.16.101.315.203.474.304-.165-.097-.324-.195-.484-.292-.048-.941.059-1.921-.17-2.817-1.377-5.381-2.876-10.732-4.248-16.114-1.324-5.185-2.547-10.394-3.817-15.594-.224-.915-.043-1.636 1.01-1.974l29.8 22.572c-1.877-3.075-3.999-5.875-6.147-8.656-4.907-6.354-9.825-12.7-14.748-19.044-.516-.666-.654-1.293.234-2.134 2.84.838 5.827 1.695 8.794 2.598 5.763 1.753 11.691 2.923 17.374 4.994 2.217.808 4.68.954 7.029 1.401.324.192.643.384.962.576.059-.133.112-.266.17-.399a442.95 442.95 0 0 1-1.132-.176c-.245-.326-.42-.765-.744-.962-3.041-1.84-6.104-3.638-9.155-5.449-4.855-2.877-9.709-5.751-14.563-8.633-1.797-1.069-3.551-2.22-5.39-3.205-.894-.475-.958-.97-.474-1.939 3.403-.445 6.922-.824 10.415-1.38 5.056-.807 10.08-1.827 15.227-1.867.32-.002.649.03.952-.046 2.743-.686 5.518-1.128 8.352-1.223.505-.017.505-.04 1.345-.998-2.456-.276-4.955-.531-7.448-.843-1.755-.22-3.504-.526-5.258-.779-2.579-.372-5.152-.783-7.741-1.079-2.606-.297-5.227-.446-7.837-.716-1.239-.127-2.456-.424-3.695-.571-1.223-.146-2.329-.511-3.807-1.327 5.248-3.833 10.92-6.079 16.056-9.203 5.205-3.165 10.73-5.814 16.115-8.69-3.45.38-6.774 1.094-10.075 1.887-2.829.678-5.63 1.453-8.448 2.172-5.535 1.41-11.075 2.788-16.599 4.236-1.307.342-1.999-.038-2.312-1.166l22.765-29.374c-3.206 1.837-6.167 3.906-9.033 6.102-6.06 4.645-12.057 9.375-18.124 14.014-.659.505-1.403 1.264-2.568.894 0-.907-.18-1.777.032-2.537 1.287-4.559 2.648-9.096 4.014-13.634 1.776-5.92 3.584-11.831 5.36-17.752.116-.393.063-.837.084-1.257.187-.313.378-.627.564-.94l-.372-.157c-.064.367-.128.733-.186 1.1-2.648 4.203-5.3 8.406-7.949 12.609-1.105 1.76-2.243 3.505-3.312 5.287-2.68 4.458-5.316 8.943-8.023 13.385-.265.434-.887.653-1.727 1.235-.288-2.688-.351-4.974-.808-7.183a113.306 113.306 0 0 1-1.84-11.939c-.191-1.96-.213-3.975-.728-5.854-.777-2.838-.452-5.778-1.154-8.607-.362-1.455-.505-2.961-.85-5.074-.889 6.621-1.463 12.605-2.547 18.495-1.1 5.96-1.01 12.098-2.866 18.712-2.467-2.548-3.61-5.255-4.987-7.798-1.44-2.656-2.855-5.326-4.344-7.953-1.541-2.717-3.296-5.324-4.71-8.1-1.324-2.589-2.717-5.11-4.658-7.394 2.972 11.96 5.94 23.918 8.9 35.853-1.206.975-2.094-.024-2.87-.525-1.67-1.071-3.19-2.37-4.78-3.56-2.85-2.127-5.737-4.204-8.554-6.372-3.408-2.618-6.726-5.343-10.14-7.951-1.318-1.008-2.785-1.823-4.189-2.726-.212-.211-.42-.423-.632-.635l-.622-.653zm19.044-23.22c2.785 1.731 3.04 4.261 4.439 6.008 1.409 1.763 2.249 3.973 3.355 5.976 1.159 2.098 2.34 4.183 3.52 6.271 1.121 1.998 2.27 3.985 3.38 5.988 1.117 2.002 2.186 4.028 3.308 6.025 1.121 1.993 2.286 3.964 3.647 6.326.282-2.5.462-4.687.792-6.853.537-3.567 1.159-7.123 1.77-10.679.26-1.529.176-3.06.585-4.626.627-2.384.537-4.946.819-7.425.404-3.496.835-6.99 1.361-10.47.07-.445.792-.795 1.595-1.55 2.653 14.593 3.45 28.952 6.279 43.26 3.78-6.246 7.475-12.4 11.218-18.53 3.7-6.068 7.337-12.178 11.356-18.44 1.095 1.41.84 2.422.558 3.39-.888 3.069-1.855 6.114-2.727 9.187-1.824 6.45-3.573 12.92-5.412 19.365-.76 2.666-1.686 5.288-2.685 8.405.803-.304 1.27-.374 1.6-.626 3.339-2.533 6.651-5.096 9.969-7.652 3.477-2.682 6.938-5.388 10.441-8.04 2.92-2.21 5.891-4.354 8.831-6.533.83-.615 1.638-1.256 2.478-1.902.936.577.867 1.236.383 1.898a569.775 569.775 0 0 1-5.205 7.046c-2.504 3.334-4.998 6.68-7.56 9.97-2.505 3.214-5.104 6.354-7.64 9.549-1.75 2.21-3.456 4.456-5.423 7.001 4.965-.971 9.559-2.47 14.301-3.317 4.69-.838 9.267-2.326 13.908-3.457 4.71-1.148 9.336-2.703 14.084-3.434.596.966.643 1.52-.282 1.995-2.419 1.246-4.806 2.56-7.204 3.852-5.167 2.784-10.356 5.523-15.487 8.373-4.094 2.275-8.113 4.685-12.35 7.14 4.407 1.505 8.974 1.176 13.366 1.913 4.519.758 9.075 1.412 13.626 2.01 4.466.587 8.953 1.012 13.648 1.532.069.34.17.812.324 1.56-1.643.282-3.163.539-4.679.803-2.254.392-4.503.818-6.762 1.175-1.547.244-3.095.158-4.679.562-2.302.591-4.806.39-7.167.814-2.887.517-5.81.496-8.698 1.11-3.46.736-7.028.97-10.473 1.41-.112.171-.197.245-.186.305.015.097.063.226.143.273a66035.346 66035.346 0 0 0 36.562 21.845c-.069.937-.313 1.461-1.35 1.163-1.797-.517-3.62-.927-5.418-1.448-6.29-1.821-12.52-3.892-18.879-5.435-4.764-1.157-9.431-2.569-14.089-4.051-.18-.058-.404.033-.882.084 2.148 2.87 4.19 5.65 6.284 8.395a970.679 970.679 0 0 0 7.666 9.895c2.643 3.369 5.349 6.69 7.97 10.078 1.069 1.383 1.983 2.882 2.993 4.367-.92.893-1.557.682-2.318.103-4.407-3.363-8.841-6.693-13.27-10.027-5.264-3.962-10.543-7.905-15.796-11.885-1.201-.911-2.073-2.281-4.024-2.717.733 3.03 1.435 5.804 2.063 8.597.632 2.815 1.648 5.517 2.057 8.416.399 2.832 1.483 5.567 2.217 8.357.734 2.79 1.728 5.563 2.01 8.402.27 2.758 2.339 5.233 1.467 8.545-1.138-.675-1.648-1.326-2.105-2.162-3.514-6.369-7.093-12.706-10.639-19.058-2.387-4.274-4.748-8.564-7.15-12.829-.32-.566-.825-1.027-1.484-1.825-.393 2.262-.925 4.06-.983 5.872-.117 3.963-1.282 7.765-1.468 11.741-.223 4.837-1.138 9.646-1.818 14.46-.346 2.451-.803 4.889-1.276 7.321-.09.463-.479.87-1.032 1.829-.345-.63-.659-.966-.717-1.341-.309-1.94-.548-3.89-.814-5.835-.207-1.537-.436-3.07-.627-4.609-.17-1.436.037-2.856-.521-4.324-.574-1.511-.553-3.251-.75-4.895-.452-3.703-.845-7.413-1.324-11.113-.5-3.895-1.068-7.781-1.59-11.575-7.363 12.017-14.79 24.15-22.238 36.272-.192.315-.617.491-1.016.792-.893-.731-.734-1.537-.5-2.319 1.707-5.731 3.483-11.442 5.136-17.19 1.505-5.249 2.866-10.54 4.322-15.802.389-1.38.904-2.723 1.468-4.39-2.403.354-3.573 2.09-5.083 3.151-4.19 2.953-8.198 6.156-12.27 9.274-2.574 1.972-5.126 3.973-7.699 5.95a778.083 778.083 0 0 1-6.247 4.754c-.399.3-1.728.455-2.967.347 8.544-11.685 17.604-22.749 26.466-34.468-3.562.734-6.794 1.093-9.809 2.093-4.657 1.545-9.474 2.385-14.195 3.631-2.712.716-5.46 1.307-8.182 1.987-3.025.755-6.024 1.589-9.06 2.28-.446.101-1.026-.392-2.02-.81 6.077-3.983 12.27-6.84 18.103-10.305 5.843-3.47 11.941-6.516 18.092-9.838-.441-.367-.712-.795-1.042-.841-2.18-.305-4.375-.487-6.55-.79-2.578-.357-5.14-.846-7.725-1.184-2.286-.3-4.593-.418-6.88-.717-2.578-.337-5.14-.806-7.72-1.182-1.759-.257-3.524-.445-5.29-.68-1.85-.245-3.7-.509-5.544-.765-.117-1.277.531-1.7 1.446-1.792 2.51-.253 5.024-.4 7.523-.705 2.169-.264 4.317-.7 6.48-1.035 1.856-.29 3.712-.583 5.578-.805 3.844-.457 7.698-.83 11.537-1.308 3.52-.439 7.023-.973 10.851-1.51-4.647-2.725-9.06-5.306-13.467-7.902a1055.784 1055.784 0 0 1-8.613-5.13c-4.03-2.43-8.05-4.879-12.08-7.319-.892-.54-1.87-.985-2.641-1.66-.309-.273-.17-1.048-.282-1.947 6.938 2.032 13.435 4.236 20.086 5.8 6.64 1.56 12.983 4.28 20.134 5.273L-40.39 23.296c.276-1.135.845-1.454 1.786-.78 2.036 1.457 4.104 2.883 6.087 4.411 4.233 3.26 8.395 6.61 12.633 9.862 4.317 3.308 8.682 6.549 13.041 9.8.58.43 1.24.747 2.063 1.237-.877-3.567-1.69-6.934-2.53-10.297-1.893-7.596-3.791-15.19-5.695-22.783-.425-1.7-.707-3.474-1.408-5.06-.601-1.367-.367-2.614-.553-4.677z" fill="#F44200"/></svg>